<svg version="1.1" id="Layer_1" xmlns="http://www.w3.org/2000/svg" xmlns:xlink="http://www.w3.org/1999/xlink" x="0px" y="0px"
	 width="100%" viewBox="0 0 688 688" enable-background="new 0 0 688 688" xml:space="preserve">
<path fill="#000000" opacity="1.000000" stroke="none" 
	d="
M473.573303,343.522827 
	C456.577606,369.058929 439.822784,394.321045 422.945679,419.501221 
	C420.794861,422.710144 419.321259,425.225189 423.074951,428.421600 
	C425.493286,430.480957 425.210968,433.862701 425.215973,436.884125 
	C425.254272,460.046234 425.351257,483.208466 425.293213,506.370331 
	C425.284882,509.696747 426.103210,512.440857 427.998322,515.179993 
	C438.696777,530.643127 449.301849,546.171387 459.840332,561.744141 
	C463.294922,566.848816 463.039337,567.968384 458.276550,571.597961 
	C421.723236,599.453796 385.122253,627.247375 348.636993,655.192078 
	C344.626373,658.263916 341.696991,658.113770 337.690948,655.040527 
	C301.884399,627.571655 265.924225,600.302979 230.024841,572.955017 
	C223.944397,568.322937 223.868927,567.184937 228.381180,560.836243 
	C239.477539,545.223694 250.487488,529.549561 261.649963,513.984619 
	C263.427704,511.505707 263.969666,509.007477 263.885345,506.060760 
	C263.271179,484.589264 262.731140,463.115540 262.222839,441.641235 
	C262.135284,437.942505 263.556091,434.750397 266.515961,432.496582 
	C269.017548,430.591797 269.056030,428.939758 267.349915,426.273315 
	C245.622986,392.317047 224.023071,358.279510 202.387299,324.264954 
	C197.380997,316.394318 192.428131,308.488525 187.327225,300.679565 
	C183.032944,294.105469 183.170547,286.392120 181.801880,279.140533 
	C176.352112,250.266296 171.314545,221.314331 166.115677,192.392685 
	C160.975311,163.796463 155.820282,135.202896 150.680023,106.606651 
	C147.951736,91.428673 145.232788,76.249008 142.526611,61.067070 
	C141.399384,54.743248 142.830536,50.195843 146.464767,48.373470 
	C152.293945,45.450459 158.918030,46.323006 163.356323,51.269768 
	C169.004944,57.565510 174.309525,64.175484 179.647476,70.743416 
	C204.124756,100.860802 229.153351,130.512070 254.632538,159.785965 
	C281.754425,190.947205 308.803192,222.172119 335.939941,253.320374 
	C339.043488,256.882690 340.496490,260.637024 340.443451,265.513489 
	C340.211578,286.840088 340.260498,308.171478 340.408966,329.499756 
	C340.485443,340.486145 340.939545,351.471252 341.330963,362.453064 
	C341.405121,364.532990 340.361389,367.725281 344.207489,367.540680 
	C347.619476,367.376892 346.610352,364.451721 346.613892,362.516266 
	C346.672577,330.355896 346.720032,298.195099 346.580139,266.035248 
	C346.562988,262.100281 347.557831,258.917603 350.107849,256.054382 
	C361.045715,243.772934 372.158936,231.640366 382.835938,219.135635 
	C397.064331,202.471588 410.985962,185.544601 424.966370,168.670105 
	C436.708527,154.497208 448.334686,140.228256 460.033264,126.019180 
	C472.048584,111.425385 484.109558,96.869156 496.112213,82.264969 
	C504.329193,72.266960 512.372864,62.124451 520.700012,52.219742 
	C526.045593,45.861546 529.602539,44.716614 537.839050,47.722672 
	C543.001770,49.606911 544.969299,55.731262 543.651611,63.152439 
	C533.813171,118.565094 524.006958,173.983490 514.177979,229.397827 
	C510.177094,251.954269 506.150146,274.506104 502.121094,297.057556 
	C501.500366,300.531830 500.213440,303.696472 498.202789,306.667542 
	C489.989136,318.804474 481.907013,331.030426 473.573303,343.522827 
M379.738129,413.775146 
	C368.904633,404.154694 358.055023,394.552307 347.248016,384.902191 
	C344.212646,382.191803 341.398987,381.451935 338.157440,384.720032 
	C320.915100,402.103638 303.604065,419.419098 286.305450,436.746857 
	C283.933228,439.123077 282.009979,441.959320 283.680176,445.167480 
	C285.493530,448.650513 288.055603,452.021820 292.413971,452.582092 
	C298.264526,453.334229 302.147827,456.843842 303.328217,462.042267 
	C306.282623,475.053345 306.034760,487.965118 300.882233,500.692749 
	C299.097107,505.102386 295.195312,507.574951 293.314728,511.618225 
	C286.926117,525.353638 280.647736,539.137451 275.054260,553.224426 
	C274.164581,555.465027 274.211273,557.368896 275.639526,559.307800 
	C286.703125,574.326660 297.735138,589.368774 308.812775,604.377319 
	C310.951355,607.274841 313.301178,607.635803 315.694550,604.572144 
	C320.509979,598.407959 325.304169,592.226685 330.178070,586.108948 
	C331.941010,583.896118 331.835785,582.188171 329.857086,580.025879 
	C326.377380,576.223267 323.216736,572.125610 319.975861,568.108398 
	C315.732391,562.848572 311.540710,557.546997 306.755585,551.547241 
	C308.658081,550.031067 310.307709,548.893250 311.750519,547.535706 
	C317.499298,542.126587 317.454987,542.116455 322.320038,548.624268 
	C327.898041,556.085815 333.377441,563.627625 339.173279,570.917053 
	C342.385498,574.957092 343.835938,574.739929 346.821228,570.654419 
	C352.519531,562.856201 358.259003,555.085205 363.793701,547.171631 
	C365.933258,544.112488 367.796936,542.405823 371.307281,545.459229 
	C374.177795,547.955994 377.921661,549.451599 373.782227,554.294617 
	C366.974365,562.259644 360.780762,570.747986 354.267181,578.967346 
	C351.974426,581.860413 351.859192,584.400452 354.243225,587.457214 
	C359.771606,594.545654 364.977417,601.884705 370.391876,609.063354 
	C373.602509,613.320068 375.213715,613.194275 378.138062,608.677246 
	C378.680847,607.838867 379.208160,606.986755 379.684570,606.109497 
	C389.298889,588.404663 398.874542,570.678711 408.544922,553.004578 
	C409.980255,550.381287 409.849548,547.996338 408.676483,545.400757 
	C403.671021,534.325684 398.897369,523.141785 393.683075,512.166687 
	C390.078583,504.579926 387.732330,496.232788 380.794250,490.501526 
	C378.454651,488.568878 378.692902,485.327515 379.415955,482.492279 
	C382.167847,471.701111 384.484528,460.765472 395.161804,454.220795 
	C398.791992,451.995636 401.753082,448.631836 404.876526,445.638672 
	C408.937042,441.747467 408.972351,439.981628 404.847839,436.222595 
	C396.725189,428.819672 388.477997,421.553345 379.738129,413.775146 
M478.966034,172.412735 
	C475.548431,179.267181 472.161682,186.137222 468.708160,192.973526 
	C448.585266,232.806854 428.473175,272.645721 408.303284,312.455261 
	C396.638000,335.479126 384.936737,358.485413 373.083496,381.412628 
	C371.161957,385.129333 371.195557,387.562958 374.733093,390.288086 
	C380.267944,394.551819 385.362488,399.382996 390.711609,403.893066 
	C395.135559,407.623077 399.657959,411.236298 404.284363,415.022064 
	C407.790894,412.000977 409.264923,408.212799 411.358398,404.879517 
	C433.945984,368.915222 456.519348,332.942017 479.087982,296.965881 
	C480.948914,293.999390 482.802704,291.009613 483.473267,287.497498 
	C486.155457,273.449097 488.803467,259.394196 491.482971,245.345261 
	C498.126556,210.512100 504.810211,175.686539 511.398956,140.843033 
	C512.418518,135.451385 513.076172,129.988205 513.794739,124.544075 
	C514.145691,121.885330 512.745056,120.000534 510.426300,118.979538 
	C507.802704,117.824303 506.394501,119.896721 505.132080,121.583099 
	C503.945496,123.168236 503.059937,124.994484 502.154938,126.772163 
	C494.525818,141.757736 486.922638,156.756516 478.966034,172.412735 
M291.605286,340.785370 
	C267.522491,293.247162 243.410339,245.723785 219.368271,198.164993 
	C205.768143,171.261887 192.311890,144.285995 178.684738,117.396667 
	C177.724213,115.501335 177.074158,111.987015 174.306213,112.789558 
	C171.309998,113.658287 171.030472,117.033340 171.215164,119.982101 
	C171.267151,120.811913 171.356598,121.644768 171.505295,122.462326 
	C173.978088,136.059097 176.433319,149.659164 178.951019,163.247635 
	C185.743622,199.908508 192.419586,236.592133 199.493942,273.198669 
	C200.926926,280.613800 200.827789,288.546356 205.232590,295.235016 
	C230.607208,333.766113 255.974091,372.302338 281.362946,410.824036 
	C282.253113,412.174683 282.911804,413.816284 284.766235,414.333832 
	C286.628815,413.883453 287.832336,412.443512 289.187592,411.247711 
	C296.679779,404.636963 304.055054,397.888428 311.688812,391.445984 
	C314.678558,388.922791 314.958008,386.736084 313.185822,383.327759 
	C305.964813,369.440216 298.997742,355.420624 291.605286,340.785370 
M397.259552,227.757828 
	C388.477386,238.209747 379.706024,248.670746 370.907013,259.108429 
	C368.009705,262.545319 365.943726,265.431427 366.082550,270.971558 
	C366.724915,296.606689 366.148987,322.273193 365.943939,347.927948 
	C365.900055,353.419159 365.542969,358.907257 365.415009,364.398743 
	C365.372040,366.242188 365.467163,368.470520 367.453644,369.111877 
	C369.876099,369.894043 370.291534,367.455688 371.088898,365.902039 
	C387.735657,333.464996 404.384094,301.028778 421.013275,268.582733 
	C442.579285,226.504257 464.152863,184.429626 485.663666,142.322922 
	C489.599243,134.619125 493.271271,126.780067 497.017578,118.980690 
	C497.928223,117.084900 498.381531,115.054192 496.299194,113.593956 
	C493.896301,111.908859 492.676483,114.187393 491.293823,115.413986 
	C484.652740,121.305405 479.537170,128.544830 473.905792,135.324951 
	C448.484955,165.931305 423.090210,196.559296 397.259552,227.757828 
M213.631973,164.927185 
	C237.868713,210.337646 260.422455,256.602722 283.541290,302.580933 
	C295.287445,325.941437 307.073608,349.281830 318.883606,372.610077 
	C319.734222,374.290222 320.206665,376.942535 322.782501,376.444336 
	C325.496460,375.919464 324.740204,373.275513 324.686066,371.426849 
	C324.525299,365.939697 324.125458,360.459961 323.863861,354.975220 
	C322.603027,328.538940 321.280914,302.105072 320.184753,275.661896 
	C320.013977,271.541809 318.558502,268.397736 316.022980,265.323303 
	C298.858246,244.510300 281.766907,223.636597 264.689178,202.752014 
	C242.760406,175.935013 220.887344,149.072388 198.932434,122.276833 
	C196.076096,118.790741 192.875732,115.586540 189.834717,112.251770 
	C189.165985,112.700302 188.497253,113.148842 187.828522,113.597374 
	C195.140244,131.041183 204.627335,147.460541 213.631973,164.927185 
M423.771454,582.294556 
	C433.821747,573.523743 437.275604,562.887085 432.991058,550.004944 
	C432.309692,547.956299 432.123688,545.734558 431.368927,543.720093 
	C427.921326,534.518372 421.979004,526.977173 415.144745,520.099854 
	C413.301056,518.244507 411.032776,518.123230 408.778107,519.711792 
	C406.294250,521.461792 407.372650,523.493164 408.294769,525.463684 
	C411.046997,531.345093 413.560425,537.365906 416.737152,543.011475 
	C418.922333,546.894958 418.509583,549.920837 416.347168,553.583435 
	C409.914307,564.479004 403.715546,575.515747 397.594757,586.591003 
	C395.377838,590.602356 392.708252,594.462708 391.714691,599.008911 
	C393.623962,600.789734 395.511627,600.804138 397.385284,599.624390 
	C406.093201,594.141602 415.027679,589.003784 423.771454,582.294556 
M365.561646,609.935913 
	C359.759766,602.431946 353.980988,594.909973 348.148346,587.429932 
	C343.783722,581.832642 342.218384,581.712341 337.861938,587.031311 
	C332.171051,593.979614 326.538452,600.984863 321.156830,608.172302 
	C319.254486,610.713013 316.462219,612.931519 316.263855,616.723083 
	C321.989746,620.272644 327.772797,623.441162 333.870453,626.147461 
	C344.179993,630.723145 353.945099,627.590454 363.142548,623.612061 
	C371.443604,620.021362 371.483704,617.369263 365.561646,609.935913 
M409.490417,504.082153 
	C410.960236,502.800659 410.632538,501.051086 410.634521,499.428833 
	C410.653107,484.313904 410.650177,469.198914 410.610779,454.084045 
	C410.608521,453.213318 411.106110,452.054688 409.382996,451.359283 
	C404.534210,455.591583 399.557617,459.963776 394.544403,464.293610 
	C393.071320,465.565887 392.293213,467.021210 392.316010,469.036041 
	C392.389313,475.513000 392.047241,482.009186 392.435944,488.463623 
	C392.772736,494.055634 395.527191,499.102783 398.805786,503.371460 
	C401.044067,506.285706 405.344788,504.381775 409.490417,504.082153 
M283.337372,457.198883 
	C281.627594,455.757172 280.256378,453.815033 277.520630,453.067963 
	C277.421692,454.874542 277.259521,456.319885 277.276337,457.763153 
	C277.442291,472.032349 276.909943,486.317627 278.191864,500.561249 
	C278.370819,502.549744 277.500549,505.182007 280.768951,505.607513 
	C283.614746,505.977966 285.911133,505.568146 287.121979,502.347870 
	C289.164246,496.916443 291.515045,491.600952 293.739075,486.237946 
	C298.074646,475.782959 296.573181,469.075653 288.261383,461.705902 
	C286.770935,460.384430 285.316681,459.022125 283.337372,457.198883 
M270.940735,573.717041 
	C273.371094,572.991150 273.719940,571.634460 272.206818,569.659485 
	C270.387238,567.284546 268.869446,564.599915 266.727386,562.570374 
	C264.049500,560.033203 264.093445,557.653381 265.470551,554.544006 
	C268.430908,547.859802 271.238342,541.100952 273.867065,534.279663 
	C275.273560,530.629944 276.762634,526.790222 274.139008,522.982605 
	C272.033813,522.768433 270.914948,524.063965 269.875977,525.334595 
	C266.439301,529.537537 262.486511,533.176147 259.303131,537.751343 
	C248.640244,553.076111 252.767349,567.706604 270.940735,573.717041 
z"/>
</svg>