<svg version="1.1" id="Layer_1" xmlns="http://www.w3.org/2000/svg" xmlns:xlink="http://www.w3.org/1999/xlink" x="0px" y="0px"
	 width="100%" viewBox="0 0 688 688" enable-background="new 0 0 688 688" xml:space="preserve">
<path fill="#000000" opacity="1.000000" stroke="none" 
	d="
M689.000000,253.000000 
	C689.000000,398.666656 689.000000,543.833313 689.000000,689.000000 
	C459.666687,689.000000 230.333374,689.000000 1.000050,689.000000 
	C1.000034,459.666718 1.000034,230.333405 1.000017,1.000081 
	C230.333298,1.000054 459.666595,1.000054 688.999939,1.000027 
	C689.000000,84.833336 689.000000,168.666672 689.000000,253.000000 
M255.034241,628.509705 
	C255.748993,628.904236 256.502045,629.242737 257.172943,629.701355 
	C283.576996,647.750427 310.008575,665.759705 336.327576,683.932007 
	C339.699738,686.260376 342.299530,686.445312 345.614197,683.964111 
	C355.422333,676.622192 365.241943,669.276611 375.340363,662.345215 
	C401.969025,644.067627 428.747406,626.008179 455.465942,607.861572 
	C464.779144,601.536255 474.107452,595.233032 483.398773,588.875793 
	C490.070862,584.310669 490.255768,582.233948 484.997894,575.481384 
	C472.228302,559.081848 459.590179,542.578613 446.690094,526.282654 
	C443.266876,521.958252 441.689606,517.651245 441.861115,511.978912 
	C442.533936,489.722717 442.581268,467.448303 443.063873,445.185059 
	C443.175598,440.032013 441.884918,435.694153 437.892609,432.460175 
	C435.487732,430.512085 435.837799,428.557526 437.240906,426.452881 
	C444.119446,416.135010 450.823792,405.691071 458.004578,395.586578 
	C473.231049,374.160645 488.733490,352.931000 504.086365,331.594696 
	C513.510132,318.498199 522.992310,305.440430 532.186523,292.183746 
	C535.497803,287.409393 539.112793,282.415497 540.697083,276.971191 
	C543.280884,268.091705 544.260254,258.750427 546.008911,249.621689 
	C549.412964,231.851517 552.841064,214.085739 556.332520,196.332596 
	C560.514587,175.067795 564.803284,153.823990 568.989746,132.560059 
	C572.484863,114.808189 575.822327,97.025078 579.369202,79.283699 
	C583.489319,58.674995 587.868286,38.117645 591.913147,17.494514 
	C593.443054,9.694341 590.528931,6.191433 582.852600,3.831769 
	C574.945129,1.401030 568.862244,4.424333 563.871765,9.764462 
	C550.680237,23.880169 537.882385,38.362957 524.841309,52.620499 
	C516.017273,62.267570 507.112671,71.842972 498.126404,81.339027 
	C484.330902,95.917099 470.456970,110.421227 456.572388,124.914642 
	C447.151947,134.748123 437.663513,144.516571 428.192017,154.301056 
	C417.561615,165.282776 406.941803,176.274902 396.270935,187.217239 
	C381.295502,202.573654 366.231689,217.844238 351.310822,233.253372 
	C347.809631,236.869125 345.958984,241.209885 345.929749,246.530197 
	C345.730438,282.796356 345.339142,319.061432 344.991699,355.326721 
	C344.948303,359.855225 344.795166,359.944733 339.000000,359.240173 
	C339.000000,344.323486 339.000031,329.238098 339.000000,314.152710 
	C339.000000,292.321075 339.217590,270.485260 338.798523,248.661697 
	C338.723450,244.752274 336.864746,240.195068 334.356598,237.150436 
	C328.362244,229.873993 321.521881,223.289963 314.963837,216.483490 
	C304.705872,205.837006 294.420624,195.216583 284.107422,184.623611 
	C270.190704,170.329407 256.208496,156.098907 242.310944,141.786163 
	C235.958618,135.244064 229.739136,128.572922 223.463303,121.956612 
	C205.094742,102.591522 186.707916,83.243706 168.368820,63.850765 
	C158.355743,53.262302 148.367981,42.648640 138.481628,31.942150 
	C133.791534,26.862980 129.410995,21.499422 124.809402,16.336721 
	C118.272614,9.002860 111.013115,3.619294 100.293785,6.990182 
	C95.276031,8.568104 90.046547,15.605511 91.101067,20.172308 
	C93.296562,29.680382 95.726898,39.135284 97.841812,48.660648 
	C100.666451,61.382530 103.437996,74.120178 105.949181,86.906662 
	C108.965538,102.265366 111.620468,117.694656 114.548225,133.071243 
	C117.962563,151.003311 121.541420,168.904007 124.976395,186.832214 
	C127.951675,202.361160 130.855225,217.904037 133.734589,233.451111 
	C135.873138,244.998001 137.738876,256.598785 140.079407,268.103699 
	C141.499557,275.084442 142.773285,282.292389 145.631607,288.723175 
	C148.096313,294.268341 152.706848,298.860504 156.373169,303.870697 
	C169.008331,321.137177 181.642227,338.404602 194.282730,355.667175 
	C206.252045,372.013214 218.216721,388.362640 230.207947,404.692566 
	C235.914444,412.463837 241.775467,420.124023 247.356552,427.983612 
	C249.044250,430.360291 250.764801,433.595184 247.381577,435.806305 
	C243.092255,438.609680 241.831833,442.440765 242.004715,447.134766 
	C242.321503,455.736267 242.665314,464.336761 243.000381,472.937592 
	C243.328979,481.371918 243.768417,489.803680 243.958069,498.241089 
	C244.119080,505.403595 244.112823,512.575867 243.912659,519.736328 
	C243.860962,521.585632 243.247620,523.751587 242.136444,525.187012 
	C232.211899,538.007874 222.111221,550.692261 212.077042,563.428406 
	C207.213638,569.601379 202.299042,575.737000 197.575378,582.015747 
	C195.638245,584.590698 194.905533,587.392944 198.282349,589.691467 
	C217.028900,602.451538 235.763367,615.229431 255.034241,628.509705 
z"/>
<path fill="#001FFF" opacity="1.000000" stroke="none" 
	d="
M254.768097,628.255493 
	C235.763367,615.229431 217.028900,602.451538 198.282349,589.691467 
	C194.905533,587.392944 195.638245,584.590698 197.575378,582.015747 
	C202.299042,575.737000 207.213638,569.601379 212.077042,563.428406 
	C222.111221,550.692261 232.211899,538.007874 242.136444,525.187012 
	C243.247620,523.751587 243.860962,521.585632 243.912659,519.736328 
	C244.112823,512.575867 244.119080,505.403595 243.958069,498.241089 
	C243.768417,489.803680 243.328979,481.371918 243.000381,472.937592 
	C242.665314,464.336761 242.321503,455.736267 242.004715,447.134766 
	C241.831833,442.440765 243.092255,438.609680 247.381577,435.806305 
	C250.764801,433.595184 249.044250,430.360291 247.356552,427.983612 
	C241.775467,420.124023 235.914444,412.463837 230.207947,404.692566 
	C218.216721,388.362640 206.252045,372.013214 194.282730,355.667175 
	C181.642227,338.404602 169.008331,321.137177 156.373169,303.870697 
	C152.706848,298.860504 148.096313,294.268341 145.631607,288.723175 
	C142.773285,282.292389 141.499557,275.084442 140.079407,268.103699 
	C137.738876,256.598785 135.873138,244.998001 133.734589,233.451111 
	C130.855225,217.904037 127.951675,202.361160 124.976395,186.832214 
	C121.541420,168.904007 117.962563,151.003311 114.548225,133.071243 
	C111.620468,117.694656 108.965538,102.265366 105.949181,86.906662 
	C103.437996,74.120178 100.666451,61.382530 97.841812,48.660648 
	C95.726898,39.135284 93.296562,29.680382 91.101067,20.172308 
	C90.046547,15.605511 95.276031,8.568104 100.293785,6.990182 
	C111.013115,3.619294 118.272614,9.002860 124.809402,16.336721 
	C129.410995,21.499422 133.791534,26.862980 138.481628,31.942150 
	C148.367981,42.648640 158.355743,53.262302 168.368820,63.850765 
	C186.707916,83.243706 205.094742,102.591522 223.463303,121.956612 
	C229.739136,128.572922 235.958618,135.244064 242.310944,141.786163 
	C256.208496,156.098907 270.190704,170.329407 284.107422,184.623611 
	C294.420624,195.216583 304.705872,205.837006 314.963837,216.483490 
	C321.521881,223.289963 328.362244,229.873993 334.356598,237.150436 
	C336.864746,240.195068 338.723450,244.752274 338.798523,248.661697 
	C339.217590,270.485260 339.000000,292.321075 339.000000,314.152710 
	C339.000031,329.238098 339.000000,344.323486 339.000000,359.240173 
	C344.795166,359.944733 344.948303,359.855225 344.991699,355.326721 
	C345.339142,319.061432 345.730438,282.796356 345.929749,246.530197 
	C345.958984,241.209885 347.809631,236.869125 351.310822,233.253372 
	C366.231689,217.844238 381.295502,202.573654 396.270935,187.217239 
	C406.941803,176.274902 417.561615,165.282776 428.192017,154.301056 
	C437.663513,144.516571 447.151947,134.748123 456.572388,124.914642 
	C470.456970,110.421227 484.330902,95.917099 498.126404,81.339027 
	C507.112671,71.842972 516.017273,62.267570 524.841309,52.620499 
	C537.882385,38.362957 550.680237,23.880169 563.871765,9.764462 
	C568.862244,4.424333 574.945129,1.401030 582.852600,3.831769 
	C590.528931,6.191433 593.443054,9.694341 591.913147,17.494514 
	C587.868286,38.117645 583.489319,58.674995 579.369202,79.283699 
	C575.822327,97.025078 572.484863,114.808189 568.989746,132.560059 
	C564.803284,153.823990 560.514587,175.067795 556.332520,196.332596 
	C552.841064,214.085739 549.412964,231.851517 546.008911,249.621689 
	C544.260254,258.750427 543.280884,268.091705 540.697083,276.971191 
	C539.112793,282.415497 535.497803,287.409393 532.186523,292.183746 
	C522.992310,305.440430 513.510132,318.498199 504.086365,331.594696 
	C488.733490,352.931000 473.231049,374.160645 458.004578,395.586578 
	C450.823792,405.691071 444.119446,416.135010 437.240906,426.452881 
	C435.837799,428.557526 435.487732,430.512085 437.892609,432.460175 
	C441.884918,435.694153 443.175598,440.032013 443.063873,445.185059 
	C442.581268,467.448303 442.533936,489.722717 441.861115,511.978912 
	C441.689606,517.651245 443.266876,521.958252 446.690094,526.282654 
	C459.590179,542.578613 472.228302,559.081848 484.997894,575.481384 
	C490.255768,582.233948 490.070862,584.310669 483.398773,588.875793 
	C474.107452,595.233032 464.779144,601.536255 455.465942,607.861572 
	C428.747406,626.008179 401.969025,644.067627 375.340363,662.345215 
	C365.241943,669.276611 355.422333,676.622192 345.614197,683.964111 
	C342.299530,686.445312 339.699738,686.260376 336.327576,683.932007 
	C310.008575,665.759705 283.576996,647.750427 257.172943,629.701355 
	C256.502045,629.242737 255.748993,628.904236 254.768097,628.255493 
M415.555695,550.060913 
	C409.989044,538.223267 404.461395,526.367004 398.825531,514.562378 
	C397.577118,511.947479 395.769135,509.599304 394.525513,506.982513 
	C390.954376,499.468597 387.524384,491.887299 384.073029,484.316895 
	C382.791138,481.505096 381.062042,478.741760 380.561615,475.783020 
	C380.221008,473.769104 380.992798,470.770111 382.412170,469.384125 
	C392.000641,460.021240 401.947784,451.026245 411.588989,441.715637 
	C412.359528,440.971497 412.364838,438.050110 411.600494,437.322296 
	C405.872772,431.868530 399.893341,426.676117 393.933441,421.469757 
	C381.162415,410.313446 368.055786,399.520264 355.648438,387.974579 
	C343.375214,376.553802 343.332764,376.296814 331.205811,388.255188 
	C320.679230,398.635345 309.985565,408.846008 299.362518,419.128235 
	C298.765778,419.705841 298.135956,420.249084 297.527863,420.815094 
	C288.368744,429.339813 279.210632,437.865631 269.906525,446.526886 
	C280.123779,454.649658 289.956848,462.542236 299.876038,470.325043 
	C305.977722,475.112488 306.324280,475.911713 303.007202,482.851715 
	C297.394531,494.594635 291.670441,506.284302 286.002350,518.000793 
	C280.307495,529.772644 274.652679,541.564026 268.924988,553.319824 
	C265.216736,560.930847 261.409119,568.493408 257.797302,575.772705 
	C263.520966,582.728516 268.871216,589.173950 274.159363,595.669983 
	C282.541107,605.966309 290.922272,616.263733 299.216858,626.630127 
	C302.084259,630.213745 304.892029,630.725708 308.112762,627.304504 
	C314.219055,620.817932 320.306854,614.277405 325.819916,607.299133 
	C326.966888,605.847412 326.554993,601.542419 325.205841,600.010986 
	C317.972931,591.800964 310.126801,584.134888 302.696594,576.092468 
	C300.567383,573.787842 299.117737,570.855530 297.474915,568.388794 
	C300.619080,565.893433 303.056122,563.990173 305.458923,562.044617 
	C308.754791,559.375916 311.629150,558.663086 315.015259,562.388977 
	C322.490021,570.613831 330.591278,578.279358 337.883484,586.655029 
	C340.862061,590.076111 342.496490,589.196594 344.833130,586.671936 
	C353.261627,577.565063 361.821259,568.575378 370.073303,559.311523 
	C373.254852,555.739929 376.066193,556.278870 379.259430,558.788208 
	C381.814301,560.795898 384.323181,562.862061 387.465637,565.396790 
	C386.047455,567.644104 384.840637,570.383728 382.917053,572.459106 
	C375.246735,580.734619 367.506531,588.959229 359.463684,596.868652 
	C356.431519,599.850525 356.828979,602.026611 359.258179,604.782410 
	C363.611359,609.720825 367.776093,614.830750 372.248108,619.657227 
	C374.873291,622.490479 377.939423,624.915100 380.997955,627.697021 
	C396.424774,609.081970 411.281372,591.154968 425.964172,573.437683 
	C422.510040,565.628357 419.217285,558.183899 415.555695,550.060913 
M459.922241,237.406754 
	C432.844604,284.647430 405.766968,331.888092 378.486664,379.482361 
	C391.350555,390.496490 403.869415,401.215210 416.595856,412.111633 
	C420.602234,406.493683 423.797272,401.973480 427.033142,397.482666 
	C442.399017,376.157562 457.758820,354.828003 473.154755,333.524567 
	C484.732574,317.504272 496.485809,301.608795 507.901031,285.473877 
	C511.893677,279.830444 515.581909,273.858643 518.503479,267.613129 
	C520.242615,263.895416 520.143860,259.337708 521.000671,255.184341 
	C525.838135,231.736038 530.741150,208.301254 535.568115,184.850845 
	C538.425903,170.967194 541.281799,157.081833 543.961121,143.163071 
	C546.703430,128.916748 549.284668,114.638641 551.826721,100.354919 
	C553.128479,93.039978 554.190491,85.682373 555.360901,78.344055 
	C554.863525,78.100052 554.366211,77.856049 553.868835,77.612045 
	C552.838257,78.586845 551.508484,79.387085 550.822449,80.562912 
	C542.110474,95.495628 533.519287,110.498756 524.841736,125.451675 
	C508.956085,152.825470 493.041016,180.182175 477.122131,207.536667 
	C471.461761,217.263199 465.754730,226.962585 459.922241,237.406754 
M299.929749,372.666687 
	C299.276978,371.724976 298.545258,370.827942 297.983063,369.834961 
	C284.965363,346.841705 272.025360,323.804321 258.948669,300.844727 
	C242.000107,271.087067 224.955154,241.384216 207.933319,211.668320 
	C193.310425,186.140350 178.626480,160.647293 164.038727,135.099289 
	C156.354370,121.641373 148.839020,108.087036 141.203964,94.600830 
	C138.367996,89.591507 135.408051,84.652367 132.504639,79.681221 
	C131.843613,79.751160 131.182587,79.821098 130.521561,79.891037 
	C130.023956,82.764229 128.827698,85.725174 129.175232,88.492226 
	C129.882629,94.124420 131.470779,99.642227 132.611404,105.224457 
	C136.426331,123.894836 140.162781,142.581314 144.006897,161.245651 
	C148.210724,181.656540 152.551758,202.039200 156.735733,222.454132 
	C159.580948,236.336853 162.327255,250.240814 164.985245,264.160583 
	C166.524429,272.221191 168.844055,279.780304 173.928635,286.539948 
	C189.442780,307.165009 204.668671,328.007446 219.950943,348.806305 
	C233.291718,366.962799 246.530518,385.194275 259.881775,403.343048 
	C262.075073,406.324493 264.340820,410.969940 267.072266,411.361176 
	C269.873322,411.762390 273.384003,408.022491 276.414703,405.857788 
	C286.348206,398.762726 296.204651,391.559784 306.258881,384.276520 
	C304.096985,380.472809 302.086731,376.936005 299.929749,372.666687 
M386.509186,337.990723 
	C392.514191,327.326813 398.464813,316.631805 404.536469,306.006012 
	C414.652344,288.302551 424.894165,270.671021 434.992218,252.957428 
	C443.881256,237.364594 452.600555,221.675034 461.477600,206.075287 
	C471.641144,188.214798 481.872437,170.392700 492.119141,152.579727 
	C499.522430,139.709839 507.055115,126.914200 514.426575,114.026230 
	C521.354492,101.913612 528.146667,89.723343 534.998596,77.567253 
	C534.748413,77.218384 534.498230,76.869507 534.248047,76.520638 
	C532.676758,77.342651 530.750366,77.825302 529.589844,79.039818 
	C519.292786,89.815552 509.004791,100.605385 498.959625,111.615044 
	C483.943481,128.072922 469.149963,144.733704 454.216370,161.267166 
	C444.140625,172.422363 434.023926,183.541153 423.859070,194.615173 
	C408.204376,211.670029 392.360870,228.554672 376.926208,245.805649 
	C374.141754,248.917740 372.386749,253.280197 371.168640,257.367035 
	C370.064758,261.070801 370.224823,265.180420 370.031158,269.121124 
	C369.308777,283.819794 368.630341,298.520935 368.014038,313.224457 
	C367.604797,322.988373 367.484467,332.766479 366.942719,342.522034 
	C366.542236,349.733429 365.561829,356.911407 365.080627,364.120331 
	C364.949341,366.086426 365.688385,368.110657 366.028015,370.108185 
	C366.649139,370.173859 367.270294,370.239532 367.891418,370.305237 
	C373.953033,359.737793 380.014618,349.170349 386.509186,337.990723 
M273.929108,297.666016 
	C282.067810,312.360260 290.162781,327.078949 298.360992,341.739960 
	C303.613495,351.132996 308.958405,360.476166 314.421997,369.747314 
	C315.204254,371.074646 316.889923,371.869537 318.157501,372.910858 
	C318.771332,371.365204 319.773834,369.849152 319.894257,368.265961 
	C320.025665,366.538422 319.138184,364.759735 319.041290,362.984436 
	C317.988342,343.692932 316.927521,324.401306 316.029877,305.102173 
	C315.529633,294.347473 315.461273,283.572418 314.940765,272.818970 
	C314.696411,267.770142 314.038269,262.718994 313.223114,257.725128 
	C311.858887,249.367371 304.456268,245.196045 299.606812,239.389099 
	C289.771393,227.611740 279.103119,216.526443 268.704620,205.223526 
	C252.586487,187.703491 236.394363,170.251526 220.258911,152.747375 
	C213.093567,144.974213 205.989487,137.144608 198.858459,129.339828 
	C184.821014,113.976158 170.803223,98.594398 156.711212,83.280945 
	C155.573044,82.044113 153.927170,81.274467 152.517227,80.287727 
	C152.174911,80.604797 151.832596,80.921860 151.490265,81.238930 
	C155.770447,89.068413 159.944199,96.958366 164.351852,104.715424 
	C175.150024,123.719147 186.124649,142.622726 196.897873,161.640457 
	C206.140961,177.957016 215.160431,194.400101 224.356705,210.743393 
	C235.551987,230.639313 246.802307,250.504379 258.082397,270.352356 
	C263.159973,279.286621 268.367340,288.147095 273.929108,297.666016 
M252.507065,557.992920 
	C255.321426,550.939331 258.348755,543.957458 260.769012,536.771118 
	C261.248322,535.347900 259.858734,532.328064 258.477783,531.540527 
	C257.297974,530.867554 254.351059,531.785217 253.135544,532.971985 
	C249.810410,536.218506 246.879089,539.893311 243.983887,543.550598 
	C234.949768,554.962524 225.927277,566.385437 217.066345,577.931580 
	C213.953110,581.988220 214.410126,584.765930 218.515656,587.951843 
	C225.993011,593.754211 233.675308,599.291748 241.185089,605.053223 
	C253.501450,614.502258 265.740021,624.052795 278.042328,633.520264 
	C278.900970,634.181030 280.009247,634.880249 281.012299,634.896667 
	C282.204681,634.916260 284.426880,634.248230 284.440308,633.822510 
	C284.519257,631.324036 284.953400,628.179749 283.671448,626.408752 
	C278.069733,618.670349 271.895172,611.348083 265.975250,603.838013 
	C259.498322,595.621338 252.930359,587.468445 246.753387,579.030579 
	C245.612625,577.472229 245.400162,574.439209 246.048508,572.523071 
	C247.661072,567.757141 250.017410,563.242981 252.507065,557.992920 
M426.499481,615.000549 
	C427.453247,614.375366 428.446045,613.802063 429.354919,613.117371 
	C441.487030,603.977295 453.595673,594.806152 465.737213,585.678772 
	C469.720856,582.684082 470.313721,577.638306 467.039734,573.576660 
	C455.377289,559.108521 443.609375,544.723206 432.137451,530.105591 
	C430.058868,527.456970 427.783813,527.204102 426.000000,528.861145 
	C424.715973,530.053833 423.981934,533.197021 424.609955,534.864929 
	C428.144867,544.253235 431.505554,553.812805 436.226715,562.616150 
	C440.173889,569.976379 440.205719,575.165100 434.114410,581.478516 
	C427.110474,588.737732 421.470123,597.309814 415.208221,605.288635 
	C410.156921,611.724792 404.882812,617.998901 400.137970,624.651855 
	C399.189056,625.982422 400.184662,628.699707 400.283661,630.777588 
	C401.936951,630.605713 403.963837,630.989441 405.181854,630.170349 
	C412.217468,625.438965 419.062134,620.423523 426.499481,615.000549 
M353.527100,634.049011 
	C349.018066,628.338562 344.509064,622.628052 339.780029,616.638916 
	C333.669586,624.752747 328.245361,632.941284 321.770142,640.191101 
	C317.759827,644.681152 319.040924,646.795349 322.624115,650.316589 
	C328.678925,656.266785 334.131134,662.830261 340.197571,669.534607 
	C345.323395,663.078186 350.364685,657.101685 354.983154,650.814636 
	C360.541473,643.248108 360.383331,643.135864 354.243561,635.587952 
	C354.051514,635.351868 354.032349,634.975098 353.527100,634.049011 
M424.000000,497.384338 
	C424.000000,484.067719 424.000000,470.751129 424.000000,456.736847 
	C422.236511,457.214722 420.702026,457.250824 419.657410,457.984467 
	C416.446899,460.239227 413.270966,462.591431 410.361389,465.215912 
	C405.043213,470.013062 398.930389,475.350098 401.255798,483.130951 
	C404.265625,493.201935 408.872711,502.836914 413.416168,512.362000 
	C414.073334,513.739685 418.196289,513.687378 420.737305,513.799255 
	C421.447144,513.830505 422.762878,512.151001 422.895721,511.137634 
	C423.451233,506.899994 423.662537,502.617188 424.000000,497.384338 
M282.933594,491.153656 
	C285.400726,483.365814 283.708466,476.576233 277.608582,471.185364 
	C272.576172,466.737793 267.224762,462.651154 262.000092,458.392700 
	C262.000092,476.868774 261.934570,494.273438 262.100128,511.675934 
	C262.116943,513.440063 263.242035,516.453735 264.344208,516.701477 
	C267.185852,517.340271 270.687775,517.901917 272.419586,514.102905 
	C275.796051,506.696136 279.198730,499.301361 282.933594,491.153656 
z"/>
<path fill="#000000" opacity="1.000000" stroke="none" 
	d="
M415.740112,550.400146 
	C419.217285,558.183899 422.510040,565.628357 425.964172,573.437683 
	C411.281372,591.154968 396.424774,609.081970 380.997955,627.697021 
	C377.939423,624.915100 374.873291,622.490479 372.248108,619.657227 
	C367.776093,614.830750 363.611359,609.720825 359.258179,604.782410 
	C356.828979,602.026611 356.431519,599.850525 359.463684,596.868652 
	C367.506531,588.959229 375.246735,580.734619 382.917053,572.459106 
	C384.840637,570.383728 386.047455,567.644104 387.465637,565.396790 
	C384.323181,562.862061 381.814301,560.795898 379.259430,558.788208 
	C376.066193,556.278870 373.254852,555.739929 370.073303,559.311523 
	C361.821259,568.575378 353.261627,577.565063 344.833130,586.671936 
	C342.496490,589.196594 340.862061,590.076111 337.883484,586.655029 
	C330.591278,578.279358 322.490021,570.613831 315.015259,562.388977 
	C311.629150,558.663086 308.754791,559.375916 305.458923,562.044617 
	C303.056122,563.990173 300.619080,565.893433 297.474915,568.388794 
	C299.117737,570.855530 300.567383,573.787842 302.696594,576.092468 
	C310.126801,584.134888 317.972931,591.800964 325.205841,600.010986 
	C326.554993,601.542419 326.966888,605.847412 325.819916,607.299133 
	C320.306854,614.277405 314.219055,620.817932 308.112762,627.304504 
	C304.892029,630.725708 302.084259,630.213745 299.216858,626.630127 
	C290.922272,616.263733 282.541107,605.966309 274.159363,595.669983 
	C268.871216,589.173950 263.520966,582.728516 257.797302,575.772705 
	C261.409119,568.493408 265.216736,560.930847 268.924988,553.319824 
	C274.652679,541.564026 280.307495,529.772644 286.002350,518.000793 
	C291.670441,506.284302 297.394531,494.594635 303.007202,482.851715 
	C306.324280,475.911713 305.977722,475.112488 299.876038,470.325043 
	C289.956848,462.542236 280.123779,454.649658 269.906525,446.526886 
	C279.210632,437.865631 288.368744,429.339813 297.527863,420.815094 
	C298.135956,420.249084 298.765778,419.705841 299.362518,419.128235 
	C309.985565,408.846008 320.679230,398.635345 331.205811,388.255188 
	C343.332764,376.296814 343.375214,376.553802 355.648438,387.974579 
	C368.055786,399.520264 381.162415,410.313446 393.933441,421.469757 
	C399.893341,426.676117 405.872772,431.868530 411.600494,437.322296 
	C412.364838,438.050110 412.359528,440.971497 411.588989,441.715637 
	C401.947784,451.026245 392.000641,460.021240 382.412170,469.384125 
	C380.992798,470.770111 380.221008,473.769104 380.561615,475.783020 
	C381.062042,478.741760 382.791138,481.505096 384.073029,484.316895 
	C387.524384,491.887299 390.954376,499.468597 394.525513,506.982513 
	C395.769135,509.599304 397.577118,511.947479 398.825531,514.562378 
	C404.461395,526.367004 409.989044,538.223267 415.740112,550.400146 
z"/>
<path fill="#000000" opacity="1.000000" stroke="none" 
	d="
M459.995605,237.040558 
	C465.754730,226.962585 471.461761,217.263199 477.122131,207.536667 
	C493.041016,180.182175 508.956085,152.825470 524.841736,125.451675 
	C533.519287,110.498756 542.110474,95.495628 550.822449,80.562912 
	C551.508484,79.387085 552.838257,78.586845 553.868835,77.612045 
	C554.366211,77.856049 554.863525,78.100052 555.360901,78.344055 
	C554.190491,85.682373 553.128479,93.039978 551.826721,100.354919 
	C549.284668,114.638641 546.703430,128.916748 543.961121,143.163071 
	C541.281799,157.081833 538.425903,170.967194 535.568115,184.850845 
	C530.741150,208.301254 525.838135,231.736038 521.000671,255.184341 
	C520.143860,259.337708 520.242615,263.895416 518.503479,267.613129 
	C515.581909,273.858643 511.893677,279.830444 507.901031,285.473877 
	C496.485809,301.608795 484.732574,317.504272 473.154755,333.524567 
	C457.758820,354.828003 442.399017,376.157562 427.033142,397.482666 
	C423.797272,401.973480 420.602234,406.493683 416.595856,412.111633 
	C403.869415,401.215210 391.350555,390.496490 378.486664,379.482361 
	C405.766968,331.888092 432.844604,284.647430 459.995605,237.040558 
z"/>
<path fill="#000000" opacity="1.000000" stroke="none" 
	d="
M300.003113,373.032959 
	C302.086731,376.936005 304.096985,380.472809 306.258881,384.276520 
	C296.204651,391.559784 286.348206,398.762726 276.414703,405.857788 
	C273.384003,408.022491 269.873322,411.762390 267.072266,411.361176 
	C264.340820,410.969940 262.075073,406.324493 259.881775,403.343048 
	C246.530518,385.194275 233.291718,366.962799 219.950943,348.806305 
	C204.668671,328.007446 189.442780,307.165009 173.928635,286.539948 
	C168.844055,279.780304 166.524429,272.221191 164.985245,264.160583 
	C162.327255,250.240814 159.580948,236.336853 156.735733,222.454132 
	C152.551758,202.039200 148.210724,181.656540 144.006897,161.245651 
	C140.162781,142.581314 136.426331,123.894836 132.611404,105.224457 
	C131.470779,99.642227 129.882629,94.124420 129.175232,88.492226 
	C128.827698,85.725174 130.023956,82.764229 130.521561,79.891037 
	C131.182587,79.821098 131.843613,79.751160 132.504639,79.681221 
	C135.408051,84.652367 138.367996,89.591507 141.203964,94.600830 
	C148.839020,108.087036 156.354370,121.641373 164.038727,135.099289 
	C178.626480,160.647293 193.310425,186.140350 207.933319,211.668320 
	C224.955154,241.384216 242.000107,271.087067 258.948669,300.844727 
	C272.025360,323.804321 284.965363,346.841705 297.983063,369.834961 
	C298.545258,370.827942 299.276978,371.724976 300.003113,373.032959 
z"/>
<path fill="#000000" opacity="1.000000" stroke="none" 
	d="
M386.292725,338.296814 
	C380.014618,349.170349 373.953033,359.737793 367.891418,370.305237 
	C367.270294,370.239532 366.649139,370.173859 366.028015,370.108185 
	C365.688385,368.110657 364.949341,366.086426 365.080627,364.120331 
	C365.561829,356.911407 366.542236,349.733429 366.942719,342.522034 
	C367.484467,332.766479 367.604797,322.988373 368.014038,313.224457 
	C368.630341,298.520935 369.308777,283.819794 370.031158,269.121124 
	C370.224823,265.180420 370.064758,261.070801 371.168640,257.367035 
	C372.386749,253.280197 374.141754,248.917740 376.926208,245.805649 
	C392.360870,228.554672 408.204376,211.670029 423.859070,194.615173 
	C434.023926,183.541153 444.140625,172.422363 454.216370,161.267166 
	C469.149963,144.733704 483.943481,128.072922 498.959625,111.615044 
	C509.004791,100.605385 519.292786,89.815552 529.589844,79.039818 
	C530.750366,77.825302 532.676758,77.342651 534.248047,76.520638 
	C534.498230,76.869507 534.748413,77.218384 534.998596,77.567253 
	C528.146667,89.723343 521.354492,101.913612 514.426575,114.026230 
	C507.055115,126.914200 499.522430,139.709839 492.119141,152.579727 
	C481.872437,170.392700 471.641144,188.214798 461.477600,206.075287 
	C452.600555,221.675034 443.881256,237.364594 434.992218,252.957428 
	C424.894165,270.671021 414.652344,288.302551 404.536469,306.006012 
	C398.464813,316.631805 392.514191,327.326813 386.292725,338.296814 
z"/>
<path fill="#000000" opacity="1.000000" stroke="none" 
	d="
M273.722473,297.353516 
	C268.367340,288.147095 263.159973,279.286621 258.082397,270.352356 
	C246.802307,250.504379 235.551987,230.639313 224.356705,210.743393 
	C215.160431,194.400101 206.140961,177.957016 196.897873,161.640457 
	C186.124649,142.622726 175.150024,123.719147 164.351852,104.715424 
	C159.944199,96.958366 155.770447,89.068413 151.490265,81.238930 
	C151.832596,80.921860 152.174911,80.604797 152.517227,80.287727 
	C153.927170,81.274467 155.573044,82.044113 156.711212,83.280945 
	C170.803223,98.594398 184.821014,113.976158 198.858459,129.339828 
	C205.989487,137.144608 213.093567,144.974213 220.258911,152.747375 
	C236.394363,170.251526 252.586487,187.703491 268.704620,205.223526 
	C279.103119,216.526443 289.771393,227.611740 299.606812,239.389099 
	C304.456268,245.196045 311.858887,249.367371 313.223114,257.725128 
	C314.038269,262.718994 314.696411,267.770142 314.940765,272.818970 
	C315.461273,283.572418 315.529633,294.347473 316.029877,305.102173 
	C316.927521,324.401306 317.988342,343.692932 319.041290,362.984436 
	C319.138184,364.759735 320.025665,366.538422 319.894257,368.265961 
	C319.773834,369.849152 318.771332,371.365204 318.157501,372.910858 
	C316.889923,371.869537 315.204254,371.074646 314.421997,369.747314 
	C308.958405,360.476166 303.613495,351.132996 298.360992,341.739960 
	C290.162781,327.078949 282.067810,312.360260 273.722473,297.353516 
z"/>
<path fill="#000000" opacity="1.000000" stroke="none" 
	d="
M252.291077,558.310303 
	C250.017410,563.242981 247.661072,567.757141 246.048508,572.523071 
	C245.400162,574.439209 245.612625,577.472229 246.753387,579.030579 
	C252.930359,587.468445 259.498322,595.621338 265.975250,603.838013 
	C271.895172,611.348083 278.069733,618.670349 283.671448,626.408752 
	C284.953400,628.179749 284.519257,631.324036 284.440308,633.822510 
	C284.426880,634.248230 282.204681,634.916260 281.012299,634.896667 
	C280.009247,634.880249 278.900970,634.181030 278.042328,633.520264 
	C265.740021,624.052795 253.501450,614.502258 241.185089,605.053223 
	C233.675308,599.291748 225.993011,593.754211 218.515656,587.951843 
	C214.410126,584.765930 213.953110,581.988220 217.066345,577.931580 
	C225.927277,566.385437 234.949768,554.962524 243.983887,543.550598 
	C246.879089,539.893311 249.810410,536.218506 253.135544,532.971985 
	C254.351059,531.785217 257.297974,530.867554 258.477783,531.540527 
	C259.858734,532.328064 261.248322,535.347900 260.769012,536.771118 
	C258.348755,543.957458 255.321426,550.939331 252.291077,558.310303 
z"/>
<path fill="#000000" opacity="1.000000" stroke="none" 
	d="
M426.235474,615.252441 
	C419.062134,620.423523 412.217468,625.438965 405.181854,630.170349 
	C403.963837,630.989441 401.936951,630.605713 400.283661,630.777588 
	C400.184662,628.699707 399.189056,625.982422 400.137970,624.651855 
	C404.882812,617.998901 410.156921,611.724792 415.208221,605.288635 
	C421.470123,597.309814 427.110474,588.737732 434.114410,581.478516 
	C440.205719,575.165100 440.173889,569.976379 436.226715,562.616150 
	C431.505554,553.812805 428.144867,544.253235 424.609955,534.864929 
	C423.981934,533.197021 424.715973,530.053833 426.000000,528.861145 
	C427.783813,527.204102 430.058868,527.456970 432.137451,530.105591 
	C443.609375,544.723206 455.377289,559.108521 467.039734,573.576660 
	C470.313721,577.638306 469.720856,582.684082 465.737213,585.678772 
	C453.595673,594.806152 441.487030,603.977295 429.354919,613.117371 
	C428.446045,613.802063 427.453247,614.375366 426.235474,615.252441 
z"/>
<path fill="#000000" opacity="1.000000" stroke="none" 
	d="
M353.729828,634.356445 
	C354.032349,634.975098 354.051514,635.351868 354.243561,635.587952 
	C360.383331,643.135864 360.541473,643.248108 354.983154,650.814636 
	C350.364685,657.101685 345.323395,663.078186 340.197571,669.534607 
	C334.131134,662.830261 328.678925,656.266785 322.624115,650.316589 
	C319.040924,646.795349 317.759827,644.681152 321.770142,640.191101 
	C328.245361,632.941284 333.669586,624.752747 339.780029,616.638916 
	C344.509064,622.628052 349.018066,628.338562 353.729828,634.356445 
z"/>
<path fill="#000000" opacity="1.000000" stroke="none" 
	d="
M424.000000,497.867645 
	C423.662537,502.617188 423.451233,506.899994 422.895721,511.137634 
	C422.762878,512.151001 421.447144,513.830505 420.737305,513.799255 
	C418.196289,513.687378 414.073334,513.739685 413.416168,512.362000 
	C408.872711,502.836914 404.265625,493.201935 401.255798,483.130951 
	C398.930389,475.350098 405.043213,470.013062 410.361389,465.215912 
	C413.270966,462.591431 416.446899,460.239227 419.657410,457.984467 
	C420.702026,457.250824 422.236511,457.214722 424.000000,456.736847 
	C424.000000,470.751129 424.000000,484.067719 424.000000,497.867645 
z"/>
<path fill="#000000" opacity="1.000000" stroke="none" 
	d="
M282.762054,491.527649 
	C279.198730,499.301361 275.796051,506.696136 272.419586,514.102905 
	C270.687775,517.901917 267.185852,517.340271 264.344208,516.701477 
	C263.242035,516.453735 262.116943,513.440063 262.100128,511.675934 
	C261.934570,494.273438 262.000092,476.868774 262.000092,458.392700 
	C267.224762,462.651154 272.576172,466.737793 277.608582,471.185364 
	C283.708466,476.576233 285.400726,483.365814 282.762054,491.527649 
z"/>
</svg>