<?xml version="1.0" encoding="UTF-8" standalone="no"?>
<svg
   version="1.1"
   id="Layer_1"
   x="0px"
   y="0px"
   width="100%"
   viewBox="0 0 688 688"
   enable-background="new 0 0 688 688"
   xml:space="preserve"
   sodipodi:docname="bunyBlue.svg"
   inkscape:version="1.2 (dc2aedaf03, 2022-05-15)"
   inkscape:export-filename="bunyBlue.svg"
   inkscape:export-xdpi="35.57"
   inkscape:export-ydpi="35.57"
   xmlns:inkscape="http://www.inkscape.org/namespaces/inkscape"
   xmlns:sodipodi="http://sodipodi.sourceforge.net/DTD/sodipodi-0.dtd"
   xmlns="http://www.w3.org/2000/svg"
   xmlns:svg="http://www.w3.org/2000/svg"><defs
   id="defs7"><rect
     x="115.52239"
     y="549.37313"
     width="483.48259"
     height="128.35821"
     id="rect4565" /><filter
     inkscape:label="Pixellize"
     inkscape:menu="Pixel Tools"
     inkscape:menu-tooltip="Reduce or remove antialiasing around shapes"
     style="color-interpolation-filters:sRGB;"
     id="filter7133"
     x="0"
     y="0"
     width="1"
     height="1"><feColorMatrix
       type="luminanceToAlpha"
       result="result2"
       id="feColorMatrix7125" /><feComposite
       in2="SourceGraphic"
       operator="arithmetic"
       in="result2"
       k3="2"
       result="result4"
       id="feComposite7127" /><feBlend
       in="result4"
       mode="multiply"
       result="result3"
       in2="result2"
       id="feBlend7129" /><feComposite
       in2="SourceGraphic"
       operator="in"
       in="result3"
       id="feComposite7131"
       result="fbSourceGraphic" /><feColorMatrix
       result="fbSourceGraphicAlpha"
       in="fbSourceGraphic"
       values="0 0 0 -1 0 0 0 0 -1 0 0 0 0 -1 0 0 0 0 1 0"
       id="feColorMatrix7135" /><feColorMatrix
       id="feColorMatrix7137"
       type="hueRotate"
       values="0"
       in="fbSourceGraphic" /><feColorMatrix
       id="feColorMatrix7139"
       type="saturate"
       values="1" /><feColorMatrix
       id="feColorMatrix7141"
       type="matrix"
       values="2 -1 0 0 0 0 2 -1 0 0 -1 0 2 0 0 0 0 0 1 0 "
       result="fbSourceGraphic" /><feColorMatrix
       result="fbSourceGraphicAlpha"
       in="fbSourceGraphic"
       values="0 0 0 -1 0 0 0 0 -1 0 0 0 0 -1 0 0 0 0 1 0"
       id="feColorMatrix7143" /><feColorMatrix
       id="feColorMatrix7145"
       type="luminanceToAlpha"
       result="result2"
       in="fbSourceGraphic" /><feComposite
       in2="fbSourceGraphic"
       id="feComposite7147"
       operator="arithmetic"
       in="result2"
       k3="2"
       result="result4" /><feBlend
       in2="result2"
       id="feBlend7149"
       in="result4"
       mode="multiply"
       result="result3" /><feComposite
       in2="fbSourceGraphic"
       id="feComposite7151"
       operator="in"
       in="result3"
       result="fbSourceGraphic" /><feColorMatrix
       result="fbSourceGraphicAlpha"
       in="fbSourceGraphic"
       values="0 0 0 -1 0 0 0 0 -1 0 0 0 0 -1 0 0 0 0 1 0"
       id="feColorMatrix7167" /><feColorMatrix
       id="feColorMatrix7169"
       values="1 0 0 0 0 0 1 0 0 0 0 0 1 0 0 0 0 0 1000 -500 "
       in="fbSourceGraphic" /></filter><filter
     inkscape:label="Pixellize"
     inkscape:menu="Pixel Tools"
     inkscape:menu-tooltip="Reduce or remove antialiasing around shapes"
     style="color-interpolation-filters:sRGB;"
     id="filter7161"
     x="0"
     y="0"
     width="1"
     height="1"><feColorMatrix
       type="luminanceToAlpha"
       result="result2"
       id="feColorMatrix7153" /><feComposite
       in2="SourceGraphic"
       operator="arithmetic"
       in="result2"
       k3="2"
       result="result4"
       id="feComposite7155" /><feBlend
       in="result4"
       mode="multiply"
       result="result3"
       in2="result2"
       id="feBlend7157" /><feComposite
       in2="SourceGraphic"
       operator="in"
       in="result3"
       id="feComposite7159"
       result="fbSourceGraphic" /><feColorMatrix
       result="fbSourceGraphicAlpha"
       in="fbSourceGraphic"
       values="0 0 0 -1 0 0 0 0 -1 0 0 0 0 -1 0 0 0 0 1 0"
       id="feColorMatrix7163" /><feColorMatrix
       id="feColorMatrix7165"
       values="1 0 0 0 0 0 1 0 0 0 0 0 1 0 0 0 0 0 1000 -500 "
       in="fbSourceGraphic" /></filter></defs><sodipodi:namedview
   id="namedview5"
   pagecolor="#ffffff"
   bordercolor="#000000"
   borderopacity="0.25"
   inkscape:showpageshadow="2"
   inkscape:pageopacity="0.0"
   inkscape:pagecheckerboard="0"
   inkscape:deskcolor="#d1d1d1"
   showgrid="false"
   inkscape:zoom="0.82632827"
   inkscape:cx="80.476492"
   inkscape:cy="362.44675"
   inkscape:window-width="1920"
   inkscape:window-height="991"
   inkscape:window-x="-9"
   inkscape:window-y="-9"
   inkscape:window-maximized="1"
   inkscape:current-layer="Layer_1"
   showguides="false" />
<path
   fill="#000000"
   opacity="1"
   stroke="none"
   d="m 476.14047,307.58253 c -16.9957,25.5361 -33.75052,50.79822 -50.62763,75.97839 -2.15081,3.20893 -3.62442,5.72397 0.12928,8.92038 2.41833,2.05936 2.13601,5.4411 2.14102,8.46253 0.0383,23.16211 0.13528,46.32434 0.0772,69.4862 -0.008,3.32642 0.80999,6.07053 2.70511,8.80966 10.69845,15.46314 21.30352,30.9914 31.84201,46.56415 3.45459,5.10468 3.199,6.22425 -1.56379,9.85382 -36.55331,27.85584 -73.15429,55.64942 -109.63955,83.59412 -4.01062,3.07184 -6.94,2.92169 -10.94605,-0.15155 -35.80655,-27.46887 -71.76672,-54.73755 -107.6661,-82.08551 -6.08045,-4.63208 -6.15592,-5.77008 -1.64367,-12.11878 11.09636,-15.61254 22.10631,-31.28668 33.26879,-46.85162 1.77774,-2.47891 2.3197,-4.97714 2.23538,-7.92386 -0.61417,-21.47149 -1.15421,-42.94522 -1.66251,-64.41952 -0.0876,-3.69873 1.33326,-6.89084 4.29313,-9.14466 2.50158,-1.90478 2.54006,-3.55682 0.83395,-6.22326 -21.72693,-33.95627 -43.32684,-67.99381 -64.96262,-102.00836 -5.0063,-7.87064 -9.95916,-15.77643 -15.06007,-23.58539 -4.29428,-6.5741 -4.15668,-14.28745 -5.52535,-21.53904 -5.44976,-28.87423 -10.48733,-57.8262 -15.6862,-86.74784 -5.14036,-28.59623 -10.29539,-57.189793 -15.43565,-85.786038 -2.72829,-15.177978 -5.44724,-30.357643 -8.15341,-45.539581 -1.12723,-6.323822 0.30392,-10.871227 3.93815,-12.6936 5.82918,-2.9230105 12.45326,-2.050464 16.89156,2.896298 5.64862,6.295742 10.9532,12.905716 16.29115,19.473648 24.47728,30.117386 49.50588,59.768654 74.98506,89.042553 27.12189,31.16124 54.17066,62.38615 81.30741,93.53441 3.10354,3.56231 4.55654,7.31665 4.50351,12.19311 -0.23188,21.3266 -0.18296,42.65799 -0.0345,63.98627 0.0765,10.98639 0.53058,21.97149 0.922,32.95331 0.0742,2.07992 -0.96958,5.27221 2.87652,5.08761 3.41199,-0.16379 2.40287,-3.08896 2.40641,-5.02441 0.0587,-32.16037 0.10614,-64.32117 -0.0338,-96.48102 -0.0171,-3.93497 0.9777,-7.11765 3.52771,-9.98087 10.93787,-12.28144 22.05109,-24.41401 32.72809,-36.91874 14.2284,-16.66405 28.15003,-33.59104 42.13043,-50.46553 11.74216,-14.1729 23.36832,-28.44185 35.0669,-42.650929 12.01532,-14.593795 24.07629,-29.150024 36.07895,-43.754211 8.21698,-9.998009 16.26065,-20.140518 24.5878,-30.045227 5.34558,-6.3581955 8.90252,-7.5031275 17.13903,-4.49707 5.16272,1.884239 7.13025,8.00859 5.81257,15.429767 -9.83844,55.412655 -19.64466,110.83105 -29.47364,166.24539 -4.00088,22.55644 -8.02783,45.10828 -12.05688,67.65973 -0.62073,3.47427 -1.90766,6.63891 -3.91831,9.60998 -8.21365,12.13694 -16.29577,24.36289 -24.62948,36.85529 m -93.83518,70.25232 c -10.83349,-9.62045 -21.6831,-19.22284 -32.49011,-28.87296 -3.03537,-2.71039 -5.84903,-3.45025 -9.09058,-0.18216 -17.24234,17.38361 -34.55337,34.69907 -51.85199,52.02683 -2.37222,2.37622 -4.29547,5.21246 -2.62527,8.42062 1.81335,3.48303 4.37543,6.85434 8.7338,7.41461 5.85055,0.75214 9.73385,4.26175 10.91424,9.46018 2.95441,13.01108 2.70654,25.92285 -2.44598,38.65048 -1.78513,4.40964 -5.68692,6.8822 -7.56751,10.92548 -6.38861,13.73541 -12.66699,27.51922 -18.26047,41.6062 -0.88967,2.2406 -0.84298,4.14447 0.58527,6.08337 11.0636,15.01886 22.09561,30.06098 33.17325,45.06952 2.13858,2.89752 4.4884,3.25848 6.88177,0.19483 4.81543,-6.16419 9.60962,-12.34546 14.48352,-18.4632 1.76294,-2.21283 1.65772,-3.92078 -0.32098,-6.08307 -3.47971,-3.80261 -6.64035,-7.90027 -9.88122,-11.91748 -4.24347,-5.25983 -8.43516,-10.5614 -13.22028,-16.56116 1.9025,-1.51617 3.55212,-2.65399 4.99493,-4.01153 5.74878,-5.40912 5.70447,-5.41925 10.56952,1.08856 5.57801,7.46155 11.05741,15.00336 16.85324,22.29278 3.21222,4.04004 4.66266,3.82288 7.64795,-0.26263 5.69831,-7.79822 11.43778,-15.56921 16.97248,-23.48279 2.13955,-3.05914 4.00323,-4.76581 7.51358,-1.7124 2.87051,2.49677 6.61438,3.99237 2.47494,8.83539 -6.80786,7.96503 -13.00146,16.45337 -19.51504,24.67273 -2.29276,2.89306 -2.40799,5.4331 -0.024,8.48987 5.52838,7.08844 10.73419,14.42749 16.14865,21.60614 3.21063,4.25671 4.82184,4.13092 7.74619,-0.38611 0.54278,-0.83838 1.07009,-1.69049 1.5465,-2.56775 9.61432,-17.70484 19.18998,-35.43079 28.86036,-53.10492 1.43533,-2.62329 1.30462,-5.00824 0.13156,-7.60382 -5.00546,-11.07507 -9.77912,-22.25897 -14.99341,-33.23407 -3.60449,-7.58676 -5.95075,-15.9339 -12.88883,-21.66516 -2.33959,-1.93265 -2.10134,-5.17401 -1.37829,-8.00925 2.75189,-10.79117 5.06857,-21.72681 15.74585,-28.27148 3.63019,-2.22516 6.59128,-5.58896 9.71472,-8.58213 4.06052,-3.8912 4.09583,-5.65704 -0.0287,-9.41607 -8.12265,-7.40293 -16.36984,-14.66925 -25.10971,-22.44745 M 481.5332,136.47244 c -3.4176,6.85444 -6.80435,13.72448 -10.25788,20.56079 -20.12289,39.83333 -40.23498,79.67219 -60.40487,119.48173 -11.66529,23.02387 -23.36655,46.03015 -35.21979,68.95737 -1.92154,3.7167 -1.88794,6.15033 1.6496,8.87546 5.53485,4.26373 10.62939,9.09491 15.97851,13.60498 4.42395,3.73001 8.94635,7.34323 13.57276,11.129 3.50653,-3.02109 4.98056,-6.80927 7.07403,-10.14255 22.58759,-35.9643 45.16095,-71.9375 67.72959,-107.91364 1.86093,-2.96649 3.71472,-5.95627 4.38528,-9.46838 2.68219,-14.0484 5.3302,-28.1033 8.00971,-42.15224 6.64358,-34.83316 13.32724,-69.65872 19.91598,-104.50223 1.01956,-5.391644 1.67722,-10.854824 2.39578,-16.298954 0.35096,-2.658745 -1.04968,-4.543541 -3.36844,-5.564537 -2.62359,-1.155235 -4.03179,0.917183 -5.29422,2.603561 -1.18658,1.585137 -2.07214,3.411385 -2.97714,5.189064 -7.62912,14.985576 -15.2323,29.984356 -23.1889,45.640576 M 294.17245,304.84507 C 270.08966,257.30686 245.9775,209.78349 221.93544,162.22469 208.33531,135.32159 194.87905,108.3457 181.2519,81.456368 c -0.96052,-1.895332 -1.61058,-5.409652 -4.37852,-4.607109 -2.99622,0.868729 -3.27574,4.243782 -3.09105,7.192543 0.052,0.829812 0.14143,1.662667 0.29013,2.480225 2.47279,13.596773 4.92802,27.196843 7.44572,40.785313 6.79261,36.66087 13.46857,73.34449 20.54293,109.95103 1.43298,7.41513 1.33384,15.34769 5.73864,22.03635 25.37462,38.53109 50.74151,77.06732 76.13036,115.58902 0.89017,1.35064 1.54886,2.99225 3.40329,3.50979 1.86258,-0.45038 3.0661,-1.89032 4.42136,-3.08612 7.49218,-6.61075 14.86746,-13.35928 22.50122,-19.80172 2.98974,-2.5232 3.26919,-4.7099 1.49701,-8.11823 -7.22101,-13.88754 -14.18808,-27.90713 -21.58054,-42.54239 M 399.82672,191.81753 c -8.78217,10.45192 -17.55353,20.91292 -26.35254,31.3506 -2.89731,3.43689 -4.96329,6.323 -4.82447,11.86313 0.64237,25.63513 0.0664,51.30163 -0.13861,76.95639 -0.0439,5.49121 -0.40097,10.97931 -0.52893,16.47079 -0.043,1.84345 0.0522,4.07178 2.03864,4.71314 2.42245,0.78216 2.83789,-1.65619 3.63525,-3.20984 16.64676,-32.43704 33.2952,-64.87326 49.92438,-97.31931 21.56601,-42.07847 43.13959,-84.1531 64.65039,-126.25981 3.93558,-7.703794 7.60761,-15.542852 11.35391,-23.342229 0.91065,-1.89579 1.36396,-3.926498 -0.71838,-5.386734 -2.40289,-1.685097 -3.62271,0.593437 -5.00537,1.82003 -6.64109,5.891419 -11.75666,13.130844 -17.38803,19.910965 C 451.05212,129.99101 425.65737,160.619 399.82672,191.81753 M 216.19914,128.98689 c 24.23674,45.41046 46.79048,91.67553 69.90931,137.65374 11.74616,23.36051 23.53232,46.7009 35.34232,70.02915 0.85062,1.68014 1.32306,4.33246 3.8989,3.83426 2.71395,-0.52487 1.9577,-3.16883 1.90356,-5.01749 -0.16077,-5.48715 -0.56061,-10.96689 -0.8222,-16.45163 -1.26084,-26.43628 -2.58295,-52.87015 -3.67911,-79.31332 -0.17078,-4.12009 -1.62625,-7.26416 -4.16178,-10.3386 -17.16473,-20.813 -34.25607,-41.6867 -51.3338,-62.57128 -21.92877,-26.81701 -43.80183,-53.67963 -65.75674,-80.475186 -2.85634,-3.486092 -6.0567,-6.690293 -9.09772,-10.025063 -0.66873,0.448532 -1.33746,0.897072 -2.00619,1.345604 7.31172,17.443809 16.79881,33.863165 25.80345,51.329815 m 210.13948,417.36737 c 10.05029,-8.77082 13.50415,-19.40747 9.2196,-32.28961 -0.68136,-2.04865 -0.86737,-4.27039 -1.62213,-6.28486 -3.4476,-9.20172 -9.38992,-16.74292 -16.22418,-23.62023 -1.84369,-1.85535 -4.11197,-1.97663 -6.36664,-0.38807 -2.48386,1.75 -1.40546,3.78138 -0.48334,5.7519 2.75223,5.8814 5.26566,11.90222 8.44239,17.54779 2.18518,3.88348 1.77243,6.90936 -0.38999,10.57196 -6.43286,10.89557 -12.63162,21.93231 -18.75241,33.00756 -2.21692,4.01136 -4.8865,7.87171 -5.88006,12.41791 1.90927,1.78083 3.79693,1.79523 5.67059,0.61548 8.70792,-5.48279 17.64239,-10.6206 26.38617,-17.32983 m -58.20981,27.64135 c -5.80188,-7.50396 -11.58066,-15.02594 -17.4133,-22.50598 -4.36462,-5.59729 -5.92996,-5.71759 -10.28641,-0.39862 -5.69088,6.94831 -11.32348,13.95355 -16.70511,21.14099 -1.90234,2.54071 -4.69461,4.75922 -4.89297,8.55078 5.72589,3.54957 11.50894,6.71808 17.6066,9.42438 10.30954,4.57569 20.07464,1.443 29.27209,-2.5354 8.30106,-3.5907 8.34116,-6.2428 2.4191,-13.67615 m 43.92877,-105.85376 c 1.46982,-1.28149 1.14212,-3.03106 1.14411,-4.65332 0.0186,-15.11492 0.0156,-30.22991 -0.0238,-45.34478 -0.002,-0.87073 0.49533,-2.02936 -1.22778,-2.72477 -4.84879,4.2323 -9.82538,8.6045 -14.83859,12.93433 -1.47309,1.27228 -2.25119,2.7276 -2.2284,4.74243 0.0733,6.47696 -0.26876,12.97315 0.11994,19.42758 0.33679,5.59202 3.09125,10.63916 6.36984,14.90784 2.23828,2.91425 6.539,1.01032 10.68463,0.71069 M 285.90454,421.25858 c -1.70978,-1.44171 -3.081,-3.38385 -5.81675,-4.13092 -0.0989,1.80658 -0.2611,3.25193 -0.24429,4.69519 0.16596,14.2692 -0.36639,28.55448 0.91553,42.7981 0.17895,1.9885 -0.69132,4.62076 2.57709,5.04626 2.84579,0.37046 5.14218,-0.0394 6.35302,-3.25964 2.04227,-5.43143 4.39307,-10.74692 6.6171,-16.10992 4.33557,-10.45499 2.83411,-17.1623 -5.47769,-24.53205 -1.49045,-1.32147 -2.9447,-2.68377 -4.92401,-4.50702 M 273.5079,537.77674 c 2.43036,-0.72589 2.7792,-2.08258 1.26608,-4.05755 -1.81958,-2.37494 -3.33737,-5.05957 -5.47943,-7.08911 -2.67789,-2.53718 -2.63394,-4.917 -1.25683,-8.02637 2.96035,-6.68421 5.76779,-13.44306 8.39651,-20.26435 1.40649,-3.64971 2.89557,-7.48944 0.27194,-11.29705 -2.10519,-0.21418 -3.22406,1.08136 -4.26303,2.35199 -3.43667,4.20294 -7.38946,7.84155 -10.57284,12.41674 -10.66289,15.32477 -6.53579,29.95527 11.6376,35.9657 z"
   id="path2"
   style="fill:#0000ff;fill-opacity:1;filter:url(#filter7161)"
   transform="matrix(1.1571845,0,0,1.1037995,-54.895541,-3.2711458)" />
<g
   inkscape:groupmode="layer"
   id="layer1"
   inkscape:label="Layer 1"><text
     xml:space="preserve"
     id="text4563"
     style="white-space:pre;shape-inside:url(#rect4565);display:inline;opacity:0.772152;fill:#f3a900;fill-opacity:1;stroke-width:0.856;stroke-linecap:round" /></g></svg>
