{"accessors" : [{"bufferView" : 0, "byteOffset" : 0, "componentType" : 5123, "count" : 44736, "type" : "SCALAR", "max" : [35343], "min" : [0]}, {"bufferView" : 1, "byteOffset" : 0, "componentType" : 5126, "count" : 35344, "type" : "VEC3", "max" : [-0.09546700119972229, -1.773645043373108, 9.047853469848633], "min" : [-1.2227840423583984, -2.2831950187683105, 7.920104026794434], "name" : "POSITION"}, {"bufferView" : 1, "byteOffset" : 12, "componentType" : 5126, "count" : 35344, "type" : "VEC3", "max" : [0.9995371699333191, 0.9988735318183899, 0.999713659286499], "min" : [-0.999977171421051, -0.9999186396598816, -0.999484658241272], "name" : "NORMAL"}, {"bufferView" : 0, "byteOffset" : 89472, "componentType" : 5123, "count" : 12480, "type" : "SCALAR", "max" : [10299], "min" : [0]}, {"bufferView" : 2, "byteOffset" : 0, "componentType" : 5126, "count" : 10300, "type" : "VEC3", "max" : [1.3653579950332642, -1.4171260595321655, 9.28800106048584], "min" : [-1.3653579950332642, -2.230910062789917, 6.8087382316589355], "name" : "POSITION"}, {"bufferView" : 2, "byteOffset" : 12, "componentType" : 5126, "count" : 10300, "type" : "VEC3", "max" : [0.9962872862815857, 0.9993165135383606, 0.9999937415122986], "min" : [-0.9962872862815857, -0.9994733929634094, -0.9999485015869141], "name" : "NORMAL"}, {"bufferView" : 2, "byteOffset" : 24, "componentType" : 5126, "count" : 10300, "type" : "VEC2", "max" : [1, 1], "min" : [0, 0], "name" : "TEXCOORD_0"}, {"bufferView" : 0, "byteOffset" : 114432, "componentType" : 5123, "count" : 38592, "type" : "SCALAR", "max" : [31894], "min" : [0]}, {"bufferView" : 3, "byteOffset" : 0, "componentType" : 5126, "count" : 31895, "type" : "VEC3", "max" : [3.6435930728912354, 2.180516004562378, 16.34418296813965], "min" : [-3.6435930728912354, -2.1011030673980713, -0.0662039965391159], "name" : "POSITION"}, {"bufferView" : 3, "byteOffset" : 12, "componentType" : 5126, "count" : 31895, "type" : "VEC3", "max" : [1.0000044107437134, 1.0000044107437134, 1.0000044107437134], "min" : [-1.0000044107437134, -1.0000044107437134, -1.0000044107437134], "name" : "NORMAL"}, {"bufferView" : 3, "byteOffset" : 24, "componentType" : 5126, "count" : 31895, "type" : "VEC2", "max" : [0.875, 1], "min" : [0.125, 0], "name" : "TEXCOORD_0"}, {"bufferView" : 0, "byteOffset" : 191616, "componentType" : 5123, "count" : 6720, "type" : "SCALAR", "max" : [5435], "min" : [0]}, {"bufferView" : 4, "byteOffset" : 0, "componentType" : 5126, "count" : 5436, "type" : "VEC3", "max" : [3.1302499771118164, 0.5847060084342957, 16.223487854003906], "min" : [-3.1302499771118164, -1.474858045578003, 9.920875549316406], "name" : "POSITION"}, {"bufferView" : 4, "byteOffset" : 12, "componentType" : 5126, "count" : 5436, "type" : "VEC3", "max" : [0.9776450395584106, -0.2048969864845276, 0.6804308891296387], "min" : [-0.9776459336280823, -1.0000038146972656, -0.7940025329589844], "name" : "NORMAL"}, {"bufferView" : 4, "byteOffset" : 24, "componentType" : 5126, "count" : 5436, "type" : "VEC2", "max" : [0.6269530057907104, 0.3058930039405823], "min" : [0.37304699420928955, 0.0034179999493062496], "name" : "TEXCOORD_0"}], "asset" : {"generator" : "Aspose.3D 22.7", "version" : "2.0"}, "buffers" : [{"uri" : "data:application/octet-stream;base64,", "byteLength" : 3128084}], "bufferViews" : [{"buffer" : 0, "byteOffset" : 0, "byteLength" : 205056, "target" : 34963}, {"buffer" : 0, "byteOffset" : 205060, "byteLength" : 1073664, "byteStride" : 24, "target" : 34962}, {"buffer" : 0, "byteOffset" : 1278728, "byteLength" : 399360, "byteStride" : 32, "target" : 34962}, {"buffer" : 0, "byteOffset" : 1678092, "byteLength" : 1234944, "byteStride" : 32, "target" : 34962}, {"buffer" : 0, "byteOffset" : 2913040, "byteLength" : 215040, "byteStride" : 32, "target" : 34962}], "materials" : [{"name" : "pasted__aiStandardSurface2SG", "pbrMetallicRoughness" : {"baseColorFactor" : [0, 0, 0, 1], "metallicFactor" : 0, "roughnessFactor" : 0.3173105570046635}, "emissiveFactor" : [0, 0, 0], "alphaMode" : "OPAQUE", "doubleSided" : true}, {"name" : "pasted__aiStandardSurface1SG", "pbrMetallicRoughness" : {"baseColorFactor" : [0.13, 0.13, 0.13, 1], "metallicFactor" : 0, "roughnessFactor" : 1}, "emissiveFactor" : [0, 0, 0], "alphaMode" : "OPAQUE", "doubleSided" : true}, {"name" : "pasted__aiStandardSurface3SG", "pbrMetallicRoughness" : {"baseColorFactor" : [0.5, 0.5, 0.5, 1], "metallicFactor" : 0, "roughnessFactor" : 1}, "emissiveFactor" : [0, 0, 0], "alphaMode" : "OPAQUE", "doubleSided" : true}, {"name" : "pasted__aiStandardSurface4SG", "pbrMetallicRoughness" : {"baseColorFactor" : [0.5, 0.18, 0.18, 1], "metallicFactor" : 0, "roughnessFactor" : 1}, "emissiveFactor" : [0, 0, 0], "alphaMode" : "OPAQUE", "doubleSided" : true}], "meshes" : [{"primitives" : [{"attributes" : {"POSITION" : 1, "NORMAL" : 2}, "indices" : 0, "material" : 0, "mode" : 4}]}, {"primitives" : [{"attributes" : {"POSITION" : 4, "NORMAL" : 5, "TEXCOORD_0" : 6}, "indices" : 3, "material" : 1, "mode" : 4}]}, {"primitives" : [{"attributes" : {"POSITION" : 8, "NORMAL" : 9, "TEXCOORD_0" : 10}, "indices" : 7, "material" : 2, "mode" : 4}]}, {"primitives" : [{"attributes" : {"POSITION" : 12, "NORMAL" : 13, "TEXCOORD_0" : 14}, "indices" : 11, "material" : 3, "mode" : 4}]}], "nodes" : [{"mesh" : 0, "name" : "Object_2"}, {"mesh" : 1, "name" : "Object_3"}, {"mesh" : 2, "name" : "Object_4"}, {"mesh" : 3, "name" : "Object_5"}, {"children" : [0, 1, 2, 3], "name" : "Conejo peluche.obj.cleaner.materialmerger.gles"}, {"children" : [4], "matrix" : [1, 0, 0, 0, 0, 2.220446049250313E-16, -1, 0, 0, 1, 2.220446049250313E-16, 0, 0, 0, 0, 1], "name" : "Sketchfab_model"}], "scene" : 0, "scenes" : [{"nodes" : [5]}]}